<svg id="Layer_1" data-name="Layer 1" xmlns="http://www.w3.org/2000/svg" viewBox="0 0 20 20"><defs><style>.cls-1,.cls-2{fill:none;stroke:#3b3e40;stroke-linecap:round;stroke-linejoin:round;}.cls-2{stroke-width:0.75px;}</style></defs><title>Artboard 3</title><circle class="cls-1" cx="10" cy="9.96" r="9.35"/><path class="cls-2" d="M7.35,19a4.91,4.91,0,0,1,.47-1.28c0-.12.34-1.2-.07-1.13s-.3,0-.63.06a2.09,2.09,0,0,1-1.53-.37c-.1-.08-.79-.41-.93-.91a1.63,1.63,0,0,0-.3-.62l-.17-.18c-.25-.23-.4-.32-.66-.57a7.3,7.3,0,0,1-.7-.78c0-.09.47.1.93.29a5.25,5.25,0,0,1,.79.36,2.36,2.36,0,0,1,.55.47l.15.18c.07.11.09.16.17.27a1.42,1.42,0,0,0,.14.16c.13.16.54.27.77.39.45.24.49.18,1.54.17.33,0-.33-.38.2-1s.28-.49.41-.55h0a6.55,6.55,0,0,1-1.24-.18,4,4,0,0,1-1.53-.59A3,3,0,0,1,4.83,12a4.93,4.93,0,0,1-.59-2.12,3.67,3.67,0,0,1,.38-1.83,3.2,3.2,0,0,1,.66-.87,2.63,2.63,0,0,1-.2-.63,1.92,1.92,0,0,1,0-1.08A1.65,1.65,0,0,1,5.41,5a4.57,4.57,0,0,1,1.46.37,4.85,4.85,0,0,1,.91.54c.56-.11,1.07-.19,1.54-.25a8.89,8.89,0,0,1,1.54-.08,7.18,7.18,0,0,1,1.54.25,5.21,5.21,0,0,1,1-.54,5.65,5.65,0,0,1,1.41-.42c.06.38.12.67.17.88a3,3,0,0,1,.17,1.08,1.63,1.63,0,0,1-.17.54,3.7,3.7,0,0,1,.79,1.58,4.14,4.14,0,0,1-.08,1.92,4,4,0,0,1-.79,1.87,3.78,3.78,0,0,1-1.67,1.08,5,5,0,0,1-1.57.22c-.15,0,.51.2.7.68.46,1.15-.13,3.79.9,3.85"/></svg>