<svg id="Layer_1" data-name="Layer 1" xmlns="http://www.w3.org/2000/svg" viewBox="0 0 20 20"><defs><style>.cls-1,.cls-2{fill:none;stroke:#3b3e40;stroke-linecap:round;stroke-linejoin:round;}.cls-2{stroke-width:0.75px;}</style></defs><title>Artboard 4</title><circle class="cls-1" cx="10" cy="9.96" r="9.35"/><path class="cls-2" d="M7.28,9.36c0,.29,0,.7,0,1.2,0,1.29,0,1.76,0,1.94a7.33,7.33,0,0,0,.17,1.57,3.09,3.09,0,0,0,.91,1.56,3.41,3.41,0,0,0,2.11.7A3.6,3.6,0,0,0,12.9,16a3.12,3.12,0,0,0,.43-.33l-.65-2.16a2.18,2.18,0,0,1-.91.22,1.38,1.38,0,0,1-.81-.16c-.38-.27-.34-.86-.33-1.67,0-.59,0-1.46,0-2.54h2.28l0-2.38-2.21,0,0-3.05H8.2a2.39,2.39,0,0,1,0,.66A2.82,2.82,0,0,1,7.81,5.6,2.88,2.88,0,0,1,7,6.51,2.85,2.85,0,0,1,6,7V9.39Z"/></svg>