<svg id="Layer_1" data-name="Layer 1" xmlns="http://www.w3.org/2000/svg" viewBox="0 0 20 20"><defs><style>.cls-1,.cls-2{fill:none;stroke:#3b3e40;stroke-linecap:round;stroke-linejoin:round;}.cls-2{stroke-width:0.75px;}</style></defs><title>Artboard 2</title><circle class="cls-1" cx="10.01" cy="9.98" r="9.35"/><path class="cls-2" d="M10.16,7.92a2.5,2.5,0,0,1,4.25-2.18l1.73-.5c-.27.42-.74,1-1,1.41.46-.11,1.11-.38,1.57-.48l-1.2,1.4a7.29,7.29,0,0,1-.26,2.4,7.4,7.4,0,0,1-1.66,3,7.61,7.61,0,0,1-3,2.22A7.68,7.68,0,0,1,7,15.63a8.58,8.58,0,0,1-3.42-1.06,5.48,5.48,0,0,0,1.48-.12,6.4,6.4,0,0,0,1.59-.6c.28-.14.51-.27.67-.37a7,7,0,0,1-.9-.34,5.74,5.74,0,0,1-1.18-.77l-.44-.67,1-.13a8.93,8.93,0,0,0-.74-.86A16.76,16.76,0,0,1,4,9.42c-.22-.25-.41-.49-.4-.67A4.35,4.35,0,0,0,4.72,9a2.66,2.66,0,0,0,.55,0A3,3,0,0,1,4.6,8.4,2.71,2.71,0,0,1,4,6.79a2.57,2.57,0,0,1,.42-1.41,7.48,7.48,0,0,0,.9,1,8,8,0,0,0,1.15.83,6.52,6.52,0,0,0,1.59.64A5.6,5.6,0,0,0,10.16,7.92Z"/></svg>